<svg width="488" height="111" viewBox="0 0 488 111" fill="none" xmlns="http://www.w3.org/2000/svg">
<path d="M458.975 10.053H472.612C477.352 10.053 480.81 11.1684 482.985 13.3993C485.16 15.5744 486.248 18.9486 486.248 23.522V27.1193C486.248 33.1984 484.24 37.0467 480.224 38.6641V38.8314C482.455 39.5007 484.017 40.8671 484.909 42.9307C485.857 44.9942 486.331 47.755 486.331 51.2128V61.5028C486.331 63.176 486.387 64.5424 486.499 65.6021C486.61 66.606 486.889 67.6099 487.335 68.6138H477.966C477.631 67.6656 477.408 66.7733 477.296 65.9367C477.185 65.1001 477.129 63.5943 477.129 61.4191V50.7109C477.129 48.0338 476.683 46.1655 475.791 45.1058C474.954 44.0461 473.476 43.5163 471.357 43.5163H468.178V68.6138H458.975V10.053ZM471.524 35.1505C473.364 35.1505 474.731 34.6764 475.623 33.7283C476.571 32.7801 477.045 31.1906 477.045 28.9597V24.4422C477.045 22.3229 476.655 20.7891 475.874 19.841C475.149 18.8929 473.978 18.4188 472.361 18.4188H468.178V35.1505H471.524Z" fill="white"/>
<path d="M428.584 10.053H453.681V18.4188H437.786V33.8956H450.419V42.2614H437.786V60.2479H453.681V68.6138H428.584V10.053Z" fill="white"/>
<path d="M379.841 10.053H388.709L392.808 55.0611H392.975L397.326 10.053H407.365L411.715 55.0611H411.882L415.981 10.053H423.929L417.989 68.6138H406.528L402.345 29.1271H402.178L397.995 68.6138H385.781L379.841 10.053Z" fill="white"/>
<path d="M361.822 69.4503C357.304 69.4503 353.846 68.1675 351.448 65.602C349.05 63.0365 347.851 59.4113 347.851 54.7264V23.9402C347.851 19.2553 349.05 15.6301 351.448 13.0646C353.846 10.4991 357.304 9.21631 361.822 9.21631C366.339 9.21631 369.797 10.4991 372.195 13.0646C374.594 15.6301 375.793 19.2553 375.793 23.9402V54.7264C375.793 59.4113 374.594 63.0365 372.195 65.602C369.797 68.1675 366.339 69.4503 361.822 69.4503ZM361.822 61.0844C365.001 61.0844 366.59 59.1603 366.59 55.312V23.3546C366.59 19.5063 365.001 17.5821 361.822 17.5821C358.643 17.5821 357.053 19.5063 357.053 23.3546V55.312C357.053 59.1603 358.643 61.0844 361.822 61.0844Z" fill="white"/>
<path d="M316.25 10.053H329.802C334.376 10.053 337.806 11.28 340.092 13.7339C342.379 16.1879 343.522 19.7852 343.522 24.5259V30.2983C343.522 35.0389 342.379 38.6362 340.092 41.0902C337.806 43.5442 334.376 44.7712 329.802 44.7712H325.452V68.6138H316.25V10.053ZM329.802 36.4053C331.308 36.4053 332.424 35.987 333.149 35.1505C333.929 34.3139 334.32 32.8917 334.32 30.8839V23.9402C334.32 21.9324 333.929 20.5103 333.149 19.6737C332.424 18.8371 331.308 18.4188 329.802 18.4188H325.452V36.4053H329.802Z" fill="white"/>
<path d="M286.757 10.053H295.959V68.6138H286.757V10.053Z" fill="white"/>
<path d="M251.627 10.053H260.829V33.8956H270.701V10.053H279.903V68.6138H270.701V42.2614H260.829V68.6138H251.627V10.053Z" fill="white"/>
<path d="M232.463 69.4503C228.002 69.4503 224.627 68.1954 222.341 65.6856C220.054 63.1201 218.911 59.467 218.911 54.7264V51.3801H227.611V55.3957C227.611 59.1882 229.201 61.0844 232.38 61.0844C233.941 61.0844 235.113 60.6383 235.893 59.7459C236.73 58.7978 237.148 57.2919 237.148 55.2283C237.148 52.7744 236.59 50.6271 235.475 48.7867C234.36 46.8904 232.296 44.6316 229.284 42.0103C225.492 38.664 222.843 35.6523 221.337 32.9753C219.831 30.2424 219.078 27.1749 219.078 23.7728C219.078 19.1438 220.249 15.5743 222.592 13.0646C224.934 10.4991 228.336 9.21631 232.798 9.21631C237.204 9.21631 240.522 10.4991 242.753 13.0646C245.04 15.5743 246.183 19.1995 246.183 23.9402V26.3663H237.483V23.3546C237.483 21.3468 237.092 19.8967 236.312 19.0043C235.531 18.0562 234.387 17.5821 232.882 17.5821C229.814 17.5821 228.28 19.4505 228.28 23.1872C228.28 25.3066 228.838 27.2865 229.954 29.127C231.125 30.9675 233.216 33.1983 236.228 35.8196C240.076 39.166 242.725 42.2055 244.175 44.9384C245.626 47.6712 246.351 50.8781 246.351 54.5591C246.351 59.3555 245.151 63.0365 242.753 65.602C240.411 68.1675 236.981 69.4503 232.463 69.4503Z" fill="white"/>
<path d="M200.306 69.4503C195.788 69.4503 192.33 68.1675 189.932 65.602C187.534 63.0365 186.335 59.4113 186.335 54.7264V23.9402C186.335 19.2553 187.534 15.6301 189.932 13.0646C192.33 10.4991 195.788 9.21631 200.306 9.21631C204.823 9.21631 208.281 10.4991 210.679 13.0646C213.078 15.6301 214.277 19.2553 214.277 23.9402V54.7264C214.277 59.4113 213.078 63.0365 210.679 65.602C208.281 68.1675 204.823 69.4503 200.306 69.4503ZM200.306 61.0844C203.485 61.0844 205.074 59.1603 205.074 55.312V23.3546C205.074 19.5063 203.485 17.5821 200.306 17.5821C197.127 17.5821 195.537 19.5063 195.537 23.3546V55.312C195.537 59.1603 197.127 61.0844 200.306 61.0844Z" fill="white"/>
<path d="M164.052 18.4188H154.432V10.053H182.876V18.4188H173.255V68.6138H164.052V18.4188Z" fill="white"/>
<path d="M134.231 10.053H146.696L156.233 68.6138H147.031L145.357 56.9853V57.1526H134.9L133.227 68.6138H124.694L134.231 10.053ZM144.27 49.205L140.171 20.2593H140.003L135.988 49.205H144.27Z" fill="white"/>
<path d="M108.201 69.4503C103.74 69.4503 100.365 68.1954 98.0788 65.6856C95.7921 63.1201 94.6488 59.467 94.6488 54.7264V51.3801H103.349V55.3957C103.349 59.1882 104.939 61.0844 108.118 61.0844C109.679 61.0844 110.851 60.6383 111.631 59.7459C112.468 58.7978 112.886 57.2919 112.886 55.2283C112.886 52.7744 112.329 50.6271 111.213 48.7867C110.098 46.8904 108.034 44.6316 105.022 42.0103C101.23 38.664 98.5807 35.6523 97.0749 32.9753C95.569 30.2424 94.8161 27.1749 94.8161 23.7728C94.8161 19.1438 95.9873 15.5743 98.3297 13.0646C100.672 10.4991 104.074 9.21631 108.536 9.21631C112.942 9.21631 116.26 10.4991 118.491 13.0646C120.778 15.5743 121.921 19.1995 121.921 23.9402V26.3663H113.221V23.3546C113.221 21.3468 112.831 19.8967 112.05 19.0043C111.269 18.0562 110.126 17.5821 108.62 17.5821C105.552 17.5821 104.018 19.4505 104.018 23.1872C104.018 25.3066 104.576 27.2865 105.692 29.127C106.863 30.9675 108.954 33.1983 111.966 35.8196C115.814 39.166 118.463 42.2055 119.914 44.9384C121.364 47.6712 122.089 50.8781 122.089 54.5591C122.089 59.3555 120.89 63.0365 118.491 65.602C116.149 68.1675 112.719 69.4503 108.201 69.4503Z" fill="white"/>
<path d="M372.352 109.965V95.3245H377.371C379.072 95.3245 380.48 95.6312 381.596 96.2447C382.711 96.8443 383.534 97.6948 384.064 98.7963C384.608 99.8838 384.879 101.167 384.879 102.645C384.879 104.123 384.608 105.412 384.064 106.514C383.534 107.601 382.711 108.452 381.596 109.065C380.48 109.665 379.072 109.965 377.371 109.965H372.352ZM375.175 107.539H377.225C378.424 107.539 379.372 107.343 380.069 106.953C380.766 106.563 381.261 106.005 381.554 105.28C381.847 104.541 381.993 103.662 381.993 102.645C381.993 101.613 381.847 100.734 381.554 100.009C381.261 99.2703 380.766 98.7057 380.069 98.3152C379.372 97.9248 378.424 97.7296 377.225 97.7296H375.175V107.539Z" fill="#FF8D00"/>
<path d="M359.894 109.965V95.3245H362.717V107.769H369.138V109.965H359.894Z" fill="#FF8D00"/>
<path d="M345.904 109.965V95.3245H351.362C352.548 95.3245 353.524 95.5266 354.29 95.931C355.057 96.3353 355.629 96.8791 356.005 97.5623C356.382 98.2316 356.57 98.9775 356.57 99.8002C356.57 100.581 356.382 101.313 356.005 101.996C355.643 102.665 355.078 103.209 354.311 103.628C353.545 104.032 352.555 104.234 351.342 104.234H348.727V109.965H345.904ZM353.475 109.965L350.463 103.523H353.538L356.717 109.965H353.475ZM348.727 102.184H351.195C352.046 102.184 352.673 101.975 353.077 101.557C353.482 101.139 353.684 100.588 353.684 99.9048C353.684 99.2215 353.482 98.6847 353.077 98.2943C352.687 97.89 352.06 97.6878 351.195 97.6878H348.727V102.184Z" fill="#FF8D00"/>
<path d="M335.383 110.216C333.933 110.216 332.657 109.895 331.556 109.254C330.468 108.612 329.61 107.727 328.983 106.597C328.37 105.454 328.063 104.136 328.063 102.645C328.063 101.153 328.37 99.842 328.983 98.7126C329.61 97.5693 330.468 96.6769 331.556 96.0356C332.657 95.3942 333.933 95.0735 335.383 95.0735C336.833 95.0735 338.109 95.3942 339.21 96.0356C340.312 96.6769 341.169 97.5693 341.783 98.7126C342.396 99.842 342.703 101.153 342.703 102.645C342.703 104.136 342.396 105.454 341.783 106.597C341.169 107.727 340.312 108.612 339.21 109.254C338.109 109.895 336.833 110.216 335.383 110.216ZM335.383 107.685C336.289 107.685 337.07 107.483 337.725 107.078C338.395 106.66 338.91 106.075 339.273 105.322C339.636 104.569 339.817 103.676 339.817 102.645C339.817 101.599 339.636 100.706 339.273 99.9675C338.91 99.2146 338.395 98.6359 337.725 98.2316C337.07 97.8272 336.289 97.6251 335.383 97.6251C334.491 97.6251 333.71 97.8272 333.04 98.2316C332.371 98.6359 331.855 99.2146 331.493 99.9675C331.13 100.706 330.949 101.599 330.949 102.645C330.949 103.676 331.13 104.569 331.493 105.322C331.855 106.075 332.371 106.66 333.04 107.078C333.71 107.483 334.491 107.685 335.383 107.685Z" fill="#FF8D00"/>
<path d="M310.028 109.965L306.179 95.3245H309.212L311.743 106.765L314.775 95.3245H317.871L320.799 106.765L323.371 95.3245H326.404L322.472 109.965H319.105L316.281 99.2982L313.374 109.965H310.028Z" fill="#FF8D00"/>
<path d="M288.351 109.965V95.3245H297.972V97.6042H291.175V101.432H297.344V103.628H291.175V107.685H297.972V109.965H288.351Z" fill="#FF8D00"/>
<path d="M281.869 109.965V95.3245H284.692V109.965H281.869ZM272.646 109.965V95.3245H275.469V109.965H272.646ZM275.072 103.628V101.348H282.329V103.628H275.072Z" fill="#FF8D00"/>
<path d="M262.759 109.965V97.6042H258.472V95.3245H269.849V97.6042H265.562V109.965H262.759Z" fill="#FF8D00"/>
<path d="M243.725 109.965V97.6042H239.438V95.3245H250.815V97.6042H246.528V109.965H243.725Z" fill="#FF8D00"/>
<path d="M225.262 109.965L230.616 95.3245H233.816L239.149 109.965H236.159L232.185 98.5453L228.211 109.965H225.262ZM227.626 106.639L228.358 104.443H235.824L236.556 106.639H227.626Z" fill="#FF8D00"/>
<path d="M213.235 109.965V95.3245H222.856V97.6042H216.059V101.432H222.228V103.628H216.059V107.685H222.856V109.965H213.235Z" fill="#FF8D00"/>
<path d="M195.039 109.965V95.3245H197.862V107.769H204.283V109.965H195.039Z" fill="#FF8D00"/>
<path d="M182.581 109.965V95.3245H185.404V107.769H191.825V109.965H182.581Z" fill="#FF8D00"/>
<path d="M176.107 109.965V95.3245H178.93V109.965H176.107Z" fill="#FF8D00"/>
<path d="M156.958 109.965L153.109 95.3245H156.142L158.672 106.765L161.705 95.3245H164.8L167.729 106.765L170.301 95.3245H173.334L169.402 109.965H166.034L163.211 99.2982L160.304 109.965H156.958Z" fill="#FF8D00"/>
<path d="M139.913 110.216C138.853 110.216 137.905 110.034 137.069 109.672C136.246 109.309 135.591 108.779 135.103 108.082C134.629 107.385 134.378 106.542 134.35 105.552H137.34C137.368 105.984 137.48 106.374 137.675 106.723C137.884 107.071 138.177 107.35 138.553 107.559C138.93 107.755 139.376 107.852 139.892 107.852C140.338 107.852 140.722 107.783 141.042 107.643C141.377 107.49 141.635 107.281 141.816 107.016C141.997 106.751 142.088 106.437 142.088 106.075C142.088 105.642 141.983 105.287 141.774 105.008C141.565 104.729 141.279 104.492 140.917 104.297C140.554 104.102 140.136 103.927 139.662 103.774C139.202 103.607 138.714 103.439 138.198 103.272C137.069 102.896 136.197 102.394 135.584 101.766C134.984 101.139 134.684 100.309 134.684 99.2773C134.684 98.3989 134.893 97.646 135.312 97.0185C135.744 96.3911 136.337 95.9101 137.089 95.5754C137.842 95.2408 138.7 95.0735 139.662 95.0735C140.652 95.0735 141.516 95.2478 142.255 95.5963C143.008 95.931 143.601 96.419 144.033 97.0604C144.465 97.7017 144.695 98.4547 144.723 99.3191H141.691C141.691 98.9985 141.6 98.6987 141.419 98.4198C141.251 98.127 141.014 97.897 140.708 97.7296C140.401 97.5484 140.038 97.4577 139.62 97.4577C139.258 97.4438 138.923 97.4996 138.616 97.6251C138.323 97.7506 138.086 97.9388 137.905 98.1898C137.738 98.4268 137.654 98.7266 137.654 99.0891C137.654 99.4377 137.738 99.7305 137.905 99.9675C138.086 100.205 138.33 100.414 138.637 100.595C138.944 100.762 139.299 100.923 139.704 101.076C140.122 101.215 140.575 101.362 141.063 101.515C141.802 101.766 142.471 102.066 143.071 102.414C143.685 102.749 144.173 103.188 144.535 103.732C144.898 104.276 145.079 104.994 145.079 105.886C145.079 106.653 144.877 107.364 144.472 108.02C144.082 108.675 143.503 109.205 142.736 109.609C141.97 110.013 141.028 110.216 139.913 110.216Z" fill="#FF8D00"/>
<path d="M125.129 109.965V97.6042H120.842V95.3245H132.219V97.6042H127.932V109.965H125.129Z" fill="#FF8D00"/>
<path d="M106.666 109.965L112.02 95.3245H115.22L120.553 109.965H117.562L113.589 98.5453L109.615 109.965H106.666ZM109.029 106.639L109.761 104.443H117.228L117.96 106.639H109.029Z" fill="#FF8D00"/>
<path d="M99.2709 110.216C98.2112 110.216 97.2631 110.034 96.4265 109.672C95.6039 109.309 94.9485 108.779 94.4605 108.082C93.9865 107.385 93.7355 106.542 93.7076 105.552H96.6984C96.7263 105.984 96.8378 106.374 97.033 106.723C97.2422 107.071 97.535 107.35 97.9114 107.559C98.2879 107.755 98.7341 107.852 99.25 107.852C99.6961 107.852 100.08 107.783 100.4 107.643C100.735 107.49 100.993 107.281 101.174 107.016C101.355 106.751 101.446 106.437 101.446 106.075C101.446 105.642 101.341 105.287 101.132 105.008C100.923 104.729 100.637 104.492 100.275 104.297C99.9123 104.102 99.494 103.927 99.0199 103.774C98.5598 103.607 98.0718 103.439 97.5559 103.272C96.4265 102.896 95.5551 102.394 94.9416 101.766C94.342 101.139 94.0422 100.309 94.0422 99.2773C94.0422 98.3989 94.2514 97.646 94.6697 97.0185C95.1019 96.3911 95.6945 95.9101 96.4474 95.5754C97.2003 95.2408 98.0578 95.0735 99.0199 95.0735C100.01 95.0735 100.874 95.2478 101.613 95.5963C102.366 95.931 102.959 96.419 103.391 97.0604C103.823 97.7017 104.053 98.4547 104.081 99.3191H101.049C101.049 98.9985 100.958 98.6987 100.777 98.4198C100.609 98.127 100.372 97.897 100.066 97.7296C99.7589 97.5484 99.3964 97.4577 98.9781 97.4577C98.6156 97.4438 98.2809 97.4996 97.9742 97.6251C97.6814 97.7506 97.4443 97.9388 97.2631 98.1898C97.0958 98.4268 97.0121 98.7266 97.0121 99.0891C97.0121 99.4377 97.0958 99.7305 97.2631 99.9675C97.4443 100.205 97.6883 100.414 97.9951 100.595C98.3018 100.762 98.6574 100.923 99.0617 101.076C99.48 101.215 99.9332 101.362 100.421 101.515C101.16 101.766 101.829 102.066 102.429 102.414C103.042 102.749 103.53 103.188 103.893 103.732C104.256 104.276 104.437 104.994 104.437 105.886C104.437 106.653 104.235 107.364 103.83 108.02C103.44 108.675 102.861 109.205 102.094 109.609C101.327 110.013 100.386 110.216 99.2709 110.216Z" fill="#FF8D00"/>
<rect x="22.2218" y="70.5862" width="10.4573" height="15.6859" fill="white"/>
<rect x="22.2218" width="10.4573" height="15.6859" fill="white"/>
<rect y="20.9138" width="56.2079" height="11.7644" fill="white"/>
<rect y="36.6001" width="56.2079" height="11.7644" fill="white"/>
<rect y="52.2864" width="56.2079" height="11.7644" fill="white"/>
</svg>
